<svg width="24" height="24" viewBox="0 0 24 24" fill="none" xmlns="http://www.w3.org/2000/svg">
<rect x="2.38462" y="3.9232" width="17.6926" height="17.6926" rx="0.971725" stroke="black" stroke-width="0.769245"/>
<circle cx="5.89291" cy="7.12923" r="1.10692" stroke="black" stroke-width="0.769245"/>
<path d="M20.453 10.8986C20.4055 10.8986 18.9943 10.5703 18.216 10.5703C15.9022 10.5703 13.8286 11.5852 12.4272 13.1884C11.4251 12.712 10.249 12.0913 9.06224 12.0913C7.83583 12.0913 5.98238 12.5103 4.90249 13.0545C3.76212 13.6938 3.21785 14.0826 2.125 14.8342" stroke="black" stroke-width="0.769245"/>
<path d="M15.9268 15.0771L15.9562 19.8891M13.5381 17.4745H18.3502" stroke="black" stroke-width="0.769245" stroke-linecap="round" stroke-linejoin="round"/>
<path d="M5.0882 2.83918H20.4499C20.8204 2.83918 21.1208 3.12593 21.1208 3.47965V18.9822C21.1208 19.336 20.8204 19.6227 20.4499 19.6227H20.2417V20.4619H20.4499C21.306 20.4619 22 19.7994 22 18.9822V3.47965C22 2.66246 21.306 2 20.4499 2H5.0882C4.23209 2 3.53809 2.66246 3.53809 3.47965V3.67835H4.41722V3.47965C4.41722 3.12593 4.71763 2.83918 5.0882 2.83918Z" fill="black"/>
</svg>
